<?xml version="1.0" encoding="UTF-8" standalone="no"?>
<!DOCTYPE svg PUBLIC "-//W3C//DTD SVG 1.1//EN" "http://www.w3.org/Graphics/SVG/1.1/DTD/svg11.dtd">
<svg width="100%" height="100%" viewBox="0 0 48 48" version="1.1" xmlns="http://www.w3.org/2000/svg" xmlns:xlink="http://www.w3.org/1999/xlink" xml:space="preserve" xmlns:serif="http://www.serif.com/" style="fill-rule:evenodd;clip-rule:evenodd;stroke-linejoin:round;stroke-miterlimit:2;">
    <path d="M16.5,5C10.159,5 5,10.159 5,16.5L5,31.5C5,37.841 10.159,43 16.5,43L31.5,43C37.841,43 43,37.841 43,31.5L43,16.5C43,10.159 37.841,5 31.5,5L16.5,5ZM21.858,23.697C22.45,23.697 24.226,22.739 24.226,20.371C24.226,16.689 20.966,16 17.294,16C16.6,16 14.484,16.001 12.976,16.001C11.995,16 11.2,16.796 11.2,17.777L11.2,30.803C11.2,31.784 11.995,32.579 12.976,32.579L19.963,32.579C22.58,32.579 24.798,30.509 24.819,27.893C24.846,24.295 21.858,23.697 21.858,23.697ZM36.963,27.25C37.454,27.25 37.851,26.853 37.852,26.362C37.852,22.928 35.477,20.145 31.93,20.145C28.66,20.145 26.009,22.928 26.009,26.362C26.009,29.796 28.66,32.579 31.93,32.579C34.824,32.579 36.432,31.226 37.217,29.238C37.368,28.855 37.071,28.44 36.659,28.44L35.237,28.44C35.021,28.44 34.83,28.562 34.718,28.748C34.177,29.642 33.351,30.211 32.239,30.211C30.574,30.211 29.361,28.947 29.052,27.25L36.963,27.25ZM19.194,29.619L14.753,29.619L14.753,25.474L19.194,25.474C20.338,25.474 21.266,26.402 21.266,27.546C21.266,28.691 20.338,29.619 19.194,29.619ZM31.93,22.513C33.16,22.513 34.352,23.494 34.689,24.882L29.198,24.882C29.644,23.491 30.699,22.513 31.93,22.513ZM14.753,18.961L18.897,18.961C19.879,18.961 20.674,19.756 20.674,20.737C20.674,21.718 19.879,22.513 18.897,22.513L14.753,22.513L14.753,18.961ZM34.588,18.961L29.852,18.961C29.361,18.961 28.963,18.563 28.963,18.072C28.963,17.582 29.361,17.184 29.852,17.184L34.588,17.184C35.079,17.184 35.477,17.582 35.477,18.072C35.477,18.563 35.079,18.961 34.588,18.961Z"/>
</svg>
