<?xml version="1.0" encoding="UTF-8" standalone="no"?>
<!DOCTYPE svg PUBLIC "-//W3C//DTD SVG 1.1//EN" "http://www.w3.org/Graphics/SVG/1.1/DTD/svg11.dtd">
<svg width="100%" height="100%" viewBox="0 0 48 48" version="1.1" xmlns="http://www.w3.org/2000/svg" xmlns:xlink="http://www.w3.org/1999/xlink" xml:space="preserve" xmlns:serif="http://www.serif.com/" style="fill-rule:evenodd;clip-rule:evenodd;stroke-linejoin:round;stroke-miterlimit:2;">
    <g transform="matrix(1.05556,0,0,1.05556,-1.33333,-1.33333)">
        <path d="M16.895,6C10.887,6 6,10.887 6,16.895L6,31.105C6,37.113 10.887,42 16.895,42L31.105,42C37.113,42 42,37.113 42,31.105L42,16.895C42,10.887 37.113,6 31.105,6L16.895,6ZM14,35C13.447,35 13,34.553 13,34L13,21C13,20.447 13.447,20 14,20L17,20C17.553,20 18,20.447 18,21L18,34C18,34.549 17.56,34.993 17.013,35L14,35ZM25.025,21.519C26.085,20.577 27.474,20 29,20C32.309,20 35,22.691 35,26L35,34C35,34.549 34.56,34.993 34.013,35L31,35C30.447,35 30,34.553 30,34L30,26.5C30,25.121 28.879,24 27.5,24C26.121,24 25,25.121 25,26.5L25,34C25,34.549 24.56,34.993 24.013,35L21,35C20.447,35 20,34.553 20,34L20,21C20,20.447 20.447,20 21,20L24.013,20C24.56,20.007 25,20.451 25,21L25,21.541L25.025,21.519ZM15.516,13C16.89,13.009 18,14.124 18,15.5C18,16.876 16.89,17.991 15.516,18L15.5,18C14.119,18 13,16.881 13,15.5C13,14.119 14.119,13 15.5,13L15.516,13Z" style="fill-rule:nonzero;"/>
    </g>
</svg>
