<?xml version="1.0" encoding="UTF-8" standalone="no"?>
<!DOCTYPE svg PUBLIC "-//W3C//DTD SVG 1.1//EN" "http://www.w3.org/Graphics/SVG/1.1/DTD/svg11.dtd">
<svg width="100%" height="100%" viewBox="0 0 1708 486" version="1.1" xmlns="http://www.w3.org/2000/svg" xmlns:xlink="http://www.w3.org/1999/xlink" xml:space="preserve" xmlns:serif="http://www.serif.com/" style="fill-rule:evenodd;clip-rule:evenodd;stroke-linejoin:round;stroke-miterlimit:2;">
    <g transform="matrix(1,0,0,1,-7509.17,-5784.52)">
        <path d="M7634.93,6253.1C7634.93,6262.61 7642.63,6270.31 7652.14,6270.31C7693.71,6270.31 7802.35,6270.31 7886.29,6270.31C7915.11,6270.31 7942.75,6258.86 7963.13,6238.49C7983.51,6218.11 7994.95,6190.47 7994.95,6161.65C7994.95,6077.71 7994.95,5969.07 7994.95,5927.5C7994.95,5917.99 7987.25,5910.28 7977.74,5910.28C7957.46,5910.28 7923.95,5910.28 7903.66,5910.28C7899.1,5910.28 7894.72,5912.1 7891.49,5915.33C7888.26,5918.55 7886.45,5922.93 7886.45,5927.5C7886.45,5984.24 7886.45,6161.81 7886.45,6161.81C7886.45,6161.81 7708.88,6161.81 7652.14,6161.81C7647.57,6161.81 7643.2,6163.62 7639.97,6166.85C7636.74,6170.08 7634.93,6174.45 7634.93,6179.02L7634.93,6253.1ZM8835.14,6050.14L8835.14,6097.45C8826.6,6092.16 8816.55,6089.2 8805.56,6089.2C8769.05,6089.2 8743.07,6115.59 8743.07,6152.57C8743.07,6189.55 8769.05,6216.06 8805.56,6216.06C8819.42,6216.06 8831.77,6211.35 8841.45,6203.21L8845.31,6212.04L8875.62,6212.04L8875.62,6050.14L8835.14,6050.14ZM9023.92,6151.44C9023.92,6116.53 8997.36,6089.2 8959.02,6089.2C8921.68,6089.2 8894.4,6115.99 8894.4,6152.48C8894.4,6188.83 8921.9,6215.94 8959.02,6215.94C8988.87,6215.94 9012.93,6198.99 9021.3,6171.85L8980.53,6171.85C8976.59,6178.81 8968.59,6183.01 8959.02,6183.01C8946.08,6183.01 8937.41,6175.95 8934.73,6162.3L9023.07,6162.3C9023.6,6158.61 9023.91,6155.03 9023.91,6151.44L9023.92,6151.44ZM8602.64,6093.19L8598.45,6102.37C8588.63,6094.06 8576.1,6089.39 8562.09,6089.39C8525.71,6089.39 8499.72,6115.59 8499.72,6152.44C8499.72,6189.42 8525.71,6215.94 8562.09,6215.94C8575.91,6215.94 8588.25,6211.39 8598,6203.51L8601.5,6212.13L8633.16,6212.13L8633.16,6093.19L8602.64,6093.19ZM8281.78,6215.78C8316.92,6215.78 8340.31,6194.13 8340.31,6160.89L8340.31,6093.1L8299.35,6093.1L8299.35,6159.11C8299.35,6171.52 8292.73,6179.02 8281.78,6179.02C8270.83,6179.02 8264.08,6171.64 8264.08,6159.11L8264.08,6093.1L8223.13,6093.1L8223.13,6160.89C8223.13,6194.13 8246.65,6215.78 8281.78,6215.78L8281.78,6215.78ZM8436.24,6089.57C8420.92,6089.57 8407.76,6095.47 8398.92,6105.31L8393.29,6093.1L8364.57,6093.1L8364.57,6212.04L8405.51,6212.04L8405.51,6148.52C8405.51,6133.29 8412.84,6124.35 8425.56,6124.35C8435.83,6124.35 8441.01,6131.23 8441.01,6145.09L8441.01,6212.04L8481.96,6212.04L8481.96,6139.42C8481.96,6109.15 8463.83,6089.57 8436.24,6089.57L8436.24,6089.57ZM8725.7,6092.44C8711.54,6092.44 8701.32,6096.49 8692.94,6106.18L8686.55,6093.1L8659.12,6093.1L8659.12,6212.04L8700.07,6212.04L8700.07,6151.44C8700.07,6136.23 8706.14,6129.86 8720.65,6129.86L8736.56,6129.86L8736.56,6092.44L8725.7,6092.44ZM9042.67,6212.04L9083.62,6212.04L9083.62,6050.14L9042.67,6050.14L9042.67,6212.04ZM9109.42,6212.04L9150.37,6212.04L9150.37,6050.14L9109.42,6050.14L9109.42,6212.04ZM8157.92,6212.04L8198.87,6212.04L8198.87,6050.14L8157.92,6050.14L8157.92,6212.04ZM9176.07,6212.03L9217.02,6212.03L9217.02,6093.1L9176.07,6093.1L9176.07,6212.03ZM8811.04,6179.81C8795.68,6179.81 8784.4,6168.11 8784.4,6152.57C8784.4,6137.03 8795.68,6125.33 8811.04,6125.33C8826.4,6125.33 8837.68,6137.03 8837.68,6152.57C8837.68,6168.11 8826.4,6179.81 8811.04,6179.81ZM8594.21,6152.53C8594.21,6168.08 8582.92,6179.68 8567.57,6179.68C8552.21,6179.68 8540.92,6168.11 8540.92,6152.62C8540.92,6137.09 8552.12,6125.48 8567.57,6125.48C8582.92,6125.48 8594.21,6137.09 8594.21,6152.53ZM7869.19,5801.73C7869.19,5792.23 7861.49,5784.52 7851.98,5784.52C7810.41,5784.52 7701.77,5784.52 7617.83,5784.52C7589.01,5784.52 7561.37,5795.97 7540.99,5816.35C7520.61,5836.73 7509.17,5864.37 7509.17,5893.19C7509.17,5977.13 7509.17,6085.77 7509.17,6127.34C7509.17,6136.85 7516.87,6144.55 7526.38,6144.55C7546.66,6144.55 7580.17,6144.55 7600.46,6144.55C7605.02,6144.55 7609.4,6142.74 7612.63,6139.51C7615.86,6136.28 7617.67,6131.9 7617.67,6127.34C7617.67,6070.6 7617.67,5893.03 7617.67,5893.03L7851.98,5893.03C7856.55,5893.03 7860.92,5891.21 7864.15,5887.99C7867.38,5884.76 7869.19,5880.38 7869.19,5875.82C7869.19,5855.53 7869.19,5822.02 7869.19,5801.73ZM8959.02,6121.28C8971.38,6121.28 8979.95,6127.7 8983.55,6139.59L8935.45,6139.59C8938.77,6127.77 8947.07,6121.28 8959.02,6121.28ZM7806.31,5990.88C7806.31,5981.1 7798.38,5973.17 7788.6,5973.17L7715.53,5973.17C7705.74,5973.17 7697.81,5981.1 7697.81,5990.88L7697.81,6063.95C7697.81,6073.74 7705.74,6081.67 7715.53,6081.67L7788.6,6081.67C7798.38,6081.67 7806.31,6073.74 7806.31,6063.95C7806.31,6043.79 7806.31,6011.05 7806.31,5990.88ZM9176.38,6078.21L9216.7,6078.21L9216.7,6043.43L9176.38,6043.43L9176.38,6078.21ZM8583.04,5884.54C8568.9,5884.54 8556.3,5889.43 8546.52,5897.88L8541.39,5888.44L8513.54,5888.44L8513.54,6050.34L8554.02,6050.34L8554.02,6003.51C8562.42,6008.57 8572.28,6011.4 8583.04,6011.4C8619.42,6011.4 8645.4,5984.98 8645.4,5947.92C8645.4,5910.84 8619.42,5884.54 8583.04,5884.54L8583.04,5884.54ZM8361.39,5946.78C8361.39,5911.88 8334.84,5884.54 8296.49,5884.54C8259.15,5884.54 8231.87,5911.34 8231.87,5947.82C8231.87,5984.17 8259.37,6011.28 8296.49,6011.28C8326.34,6011.28 8350.41,5994.33 8358.78,5967.19L8318,5967.19C8314.06,5974.15 8306.06,5978.35 8296.49,5978.35C8283.55,5978.35 8274.89,5971.29 8272.2,5957.64L8360.54,5957.64C8361.07,5953.96 8361.39,5950.37 8361.39,5946.78L8361.39,5946.78ZM8786.8,5946.78C8786.8,5911.88 8760.25,5884.54 8721.9,5884.54C8684.56,5884.54 8657.29,5911.34 8657.29,5947.82C8657.29,5984.17 8684.78,6011.28 8721.9,6011.28C8751.75,6011.28 8775.82,5994.33 8784.19,5967.19L8743.41,5967.19C8739.47,5974.15 8731.48,5978.35 8721.9,5978.35C8708.97,5978.35 8700.3,5971.29 8697.62,5957.64L8785.95,5957.64C8786.49,5953.96 8786.8,5950.37 8786.8,5946.78L8786.8,5946.78ZM8380.14,6007.38L8421.09,6007.38L8421.09,5845.48L8380.14,5845.48L8380.14,6007.38ZM8225.37,5890.39L8197.34,5890.39L8197.34,5882.3C8197.34,5876.2 8200.97,5872.61 8207.05,5872.61L8225.15,5872.61L8225.15,5841.2L8196.54,5841.2C8171.32,5841.2 8158.24,5855.15 8158.24,5878.98L8158.24,5890.39L8137.98,5890.39L8138.07,5922.55L8157.74,5922.55L8157.74,6007.38L8198.69,6007.38L8198.69,5922.55L8225.37,5922.55L8225.37,5890.39ZM8446.79,6007.38L8487.74,6007.38L8487.74,5888.44L8446.79,5888.44L8446.79,6007.38ZM8577.56,5975.15C8562.2,5975.15 8550.91,5963.54 8550.91,5947.91C8550.91,5932.27 8562.2,5920.67 8577.56,5920.67C8592.91,5920.67 8604.2,5932.27 8604.2,5947.91C8604.2,5963.54 8592.82,5975.15 8577.56,5975.15ZM8721.9,5916.62C8734.27,5916.62 8742.84,5923.04 8746.43,5934.94L8698.34,5934.94C8701.66,5923.11 8709.96,5916.62 8721.9,5916.62ZM8296.49,5916.62C8308.85,5916.62 8317.42,5923.04 8321.02,5934.94L8272.93,5934.94C8276.24,5923.11 8284.55,5916.62 8296.49,5916.62ZM8447.1,5873.55L8487.42,5873.55L8487.42,5838.78L8447.1,5838.78L8447.1,5873.55Z" style="fill:rgb(70,70,70);"/>
    </g>
</svg>
