<?xml version="1.0" encoding="UTF-8" standalone="no"?>
<!DOCTYPE svg PUBLIC "-//W3C//DTD SVG 1.1//EN" "http://www.w3.org/Graphics/SVG/1.1/DTD/svg11.dtd">
<svg width="100%" height="100%" viewBox="0 0 486 486" version="1.1" xmlns="http://www.w3.org/2000/svg" xmlns:xlink="http://www.w3.org/1999/xlink" xml:space="preserve" xmlns:serif="http://www.serif.com/" style="fill-rule:evenodd;clip-rule:evenodd;stroke-linejoin:round;stroke-miterlimit:2;">
    <g transform="matrix(1,0,0,1,-7509.17,-5784.52)">
        <path d="M7634.93,6253.1C7634.93,6262.61 7642.63,6270.31 7652.14,6270.31C7693.71,6270.31 7802.35,6270.31 7886.29,6270.31C7915.11,6270.31 7942.75,6258.86 7963.13,6238.49C7983.51,6218.11 7994.95,6190.47 7994.95,6161.65C7994.95,6077.71 7994.95,5969.07 7994.95,5927.5C7994.95,5917.99 7987.25,5910.28 7977.74,5910.28C7957.46,5910.28 7923.95,5910.28 7903.66,5910.28C7899.1,5910.28 7894.72,5912.1 7891.49,5915.33C7888.26,5918.55 7886.45,5922.93 7886.45,5927.5C7886.45,5984.24 7886.45,6161.81 7886.45,6161.81C7886.45,6161.81 7708.88,6161.81 7652.14,6161.81C7647.57,6161.81 7643.2,6163.62 7639.97,6166.85C7636.74,6170.08 7634.93,6174.45 7634.93,6179.02L7634.93,6253.1ZM7869.19,5801.73C7869.19,5792.23 7861.49,5784.52 7851.98,5784.52C7810.41,5784.52 7701.77,5784.52 7617.83,5784.52C7589.01,5784.52 7561.37,5795.97 7540.99,5816.35C7520.61,5836.73 7509.17,5864.37 7509.17,5893.19C7509.17,5977.13 7509.17,6085.77 7509.17,6127.34C7509.17,6136.85 7516.87,6144.55 7526.38,6144.55C7546.66,6144.55 7580.17,6144.55 7600.46,6144.55C7605.02,6144.55 7609.4,6142.74 7612.63,6139.51C7615.86,6136.28 7617.67,6131.9 7617.67,6127.34C7617.67,6070.6 7617.67,5893.03 7617.67,5893.03L7851.98,5893.03C7856.55,5893.03 7860.92,5891.21 7864.15,5887.99C7867.38,5884.76 7869.19,5880.38 7869.19,5875.82C7869.19,5855.53 7869.19,5822.02 7869.19,5801.73ZM7806.31,5990.88C7806.31,5981.1 7798.38,5973.17 7788.6,5973.17L7715.53,5973.17C7705.74,5973.17 7697.81,5981.1 7697.81,5990.88L7697.81,6063.95C7697.81,6073.74 7705.74,6081.67 7715.53,6081.67L7788.6,6081.67C7798.38,6081.67 7806.31,6073.74 7806.31,6063.95C7806.31,6043.79 7806.31,6011.05 7806.31,5990.88Z" style="fill:rgb(70,70,70);"/>
    </g>
</svg>
