<svg xmlns="http://www.w3.org/2000/svg" width="312" height="386.006" viewBox="0 0 312 386.006">
  <g id="Grupo_278" data-name="Grupo 278" transform="translate(-30 -30)">
    <path id="Caminho_65" data-name="Caminho 65" d="M339.468,363.039A2.532,2.532,0,0,1,342,365.571V400.02a15.986,15.986,0,0,1-15.987,15.986H291.564a2.532,2.532,0,0,1-2.532-2.532v-10.9a2.532,2.532,0,0,1,2.532-2.532h34.473V365.571a2.532,2.532,0,0,1,2.532-2.532Zm-256.5,2.614a2.607,2.607,0,0,0-2.607-2.607H69.611A2.607,2.607,0,0,0,67,365.653V376.4a2.607,2.607,0,0,0,2.606,2.607h10.75a2.607,2.607,0,0,0,2.607-2.607Zm74.009,0a2.607,2.607,0,0,0-2.607-2.607H143.62a2.607,2.607,0,0,0-2.606,2.607V376.4a2.607,2.607,0,0,0,2.606,2.607h10.75a2.607,2.607,0,0,0,2.607-2.607Zm74.009,0a2.607,2.607,0,0,0-2.606-2.607h-10.75a2.607,2.607,0,0,0-2.607,2.607V376.4a2.607,2.607,0,0,0,2.607,2.607h10.75a2.607,2.607,0,0,0,2.606-2.607Zm71.4-2.614A2.607,2.607,0,0,1,305,365.645V376.4A2.606,2.606,0,0,1,302.389,379h-10.75a2.606,2.606,0,0,1-2.606-2.606v-10.75a2.607,2.607,0,0,1,2.606-2.607Zm-182.416-34.4a2.607,2.607,0,0,0-2.607-2.606h-10.75a2.607,2.607,0,0,0-2.607,2.606v10.75A2.606,2.606,0,0,0,106.616,342h10.75a2.606,2.606,0,0,0,2.607-2.607Zm74.009,0a2.607,2.607,0,0,0-2.607-2.606h-10.75a2.607,2.607,0,0,0-2.607,2.606v10.75A2.606,2.606,0,0,0,180.625,342h10.75a2.606,2.606,0,0,0,2.607-2.607Zm74.009,0a2.607,2.607,0,0,0-2.607-2.606h-10.75a2.607,2.607,0,0,0-2.607,2.606v10.75A2.606,2.606,0,0,0,254.634,342h10.75a2.606,2.606,0,0,0,2.607-2.607Zm-111.014-37a2.606,2.606,0,0,0-2.607-2.607H143.62a2.606,2.606,0,0,0-2.606,2.607v10.75a2.606,2.606,0,0,0,2.606,2.607h10.75a2.606,2.606,0,0,0,2.607-2.607Zm-74.009,0a2.606,2.606,0,0,0-2.607-2.607H69.611A2.606,2.606,0,0,0,67,291.636v10.75a2.606,2.606,0,0,0,2.606,2.607h10.75a2.606,2.606,0,0,0,2.607-2.607Zm148.018,0a2.606,2.606,0,0,0-2.606-2.607h-10.75a2.606,2.606,0,0,0-2.607,2.607v10.75a2.606,2.606,0,0,0,2.607,2.607h10.75a2.606,2.606,0,0,0,2.606-2.607Zm74.009,0a2.606,2.606,0,0,0-2.606-2.607h-10.75a2.606,2.606,0,0,0-2.606,2.607v10.75a2.606,2.606,0,0,0,2.606,2.607h10.75A2.606,2.606,0,0,0,305,302.386ZM119.973,254.624a2.607,2.607,0,0,0-2.607-2.607h-10.75a2.607,2.607,0,0,0-2.607,2.607v10.75a2.607,2.607,0,0,0,2.607,2.607h10.75a2.607,2.607,0,0,0,2.607-2.607Zm74.009,0a2.607,2.607,0,0,0-2.607-2.607h-10.75a2.607,2.607,0,0,0-2.607,2.607v10.75a2.607,2.607,0,0,0,2.607,2.607h10.75a2.607,2.607,0,0,0,2.607-2.607Zm74.009,0a2.607,2.607,0,0,0-2.607-2.607h-10.75a2.607,2.607,0,0,0-2.607,2.607v10.75a2.607,2.607,0,0,0,2.607,2.607h10.75a2.607,2.607,0,0,0,2.607-2.607Zm-111.014-37a2.607,2.607,0,0,0-2.607-2.607H143.62a2.607,2.607,0,0,0-2.606,2.607v10.75a2.607,2.607,0,0,0,2.606,2.607h10.75a2.607,2.607,0,0,0,2.607-2.607Zm74.009,0a2.607,2.607,0,0,0-2.606-2.607h-10.75a2.607,2.607,0,0,0-2.607,2.607v10.75a2.607,2.607,0,0,0,2.607,2.607h10.75a2.607,2.607,0,0,0,2.606-2.607Zm-148.018,0a2.607,2.607,0,0,0-2.607-2.607H69.611A2.607,2.607,0,0,0,67,217.619v10.75a2.607,2.607,0,0,0,2.606,2.607h10.75a2.607,2.607,0,0,0,2.607-2.607Zm222.027,0a2.607,2.607,0,0,0-2.606-2.607h-10.75a2.607,2.607,0,0,0-2.606,2.607v10.75a2.607,2.607,0,0,0,2.606,2.607h10.75A2.607,2.607,0,0,0,305,228.37ZM119.973,180.607A2.607,2.607,0,0,0,117.366,178h-10.75a2.607,2.607,0,0,0-2.607,2.607v10.75a2.607,2.607,0,0,0,2.607,2.607h10.75a2.607,2.607,0,0,0,2.607-2.607Zm74.009,0A2.607,2.607,0,0,0,191.375,178h-10.75a2.607,2.607,0,0,0-2.607,2.607v10.75a2.607,2.607,0,0,0,2.607,2.607h10.75a2.607,2.607,0,0,0,2.607-2.607Zm74.009,0A2.607,2.607,0,0,0,265.384,178h-10.75a2.607,2.607,0,0,0-2.607,2.607v10.75a2.607,2.607,0,0,0,2.607,2.607h10.75a2.607,2.607,0,0,0,2.607-2.607Zm-111.014-37A2.607,2.607,0,0,0,154.371,141H143.62a2.607,2.607,0,0,0-2.606,2.606v10.75a2.607,2.607,0,0,0,2.606,2.606h10.75a2.607,2.607,0,0,0,2.607-2.606Zm74.009,0A2.607,2.607,0,0,0,228.38,141h-10.75a2.607,2.607,0,0,0-2.607,2.606v10.75a2.607,2.607,0,0,0,2.607,2.606h10.75a2.607,2.607,0,0,0,2.606-2.606Zm-148.018,0A2.607,2.607,0,0,0,80.361,141H69.611A2.607,2.607,0,0,0,67,143.6v10.75a2.607,2.607,0,0,0,2.606,2.606h10.75a2.607,2.607,0,0,0,2.607-2.606ZM305,143.6A2.607,2.607,0,0,0,302.389,141h-10.75a2.607,2.607,0,0,0-2.606,2.606v10.75a2.607,2.607,0,0,0,2.606,2.606h10.75A2.607,2.607,0,0,0,305,154.353ZM119.973,106.616a2.607,2.607,0,0,0-2.607-2.607h-10.75a2.607,2.607,0,0,0-2.607,2.607v10.75a2.607,2.607,0,0,0,2.607,2.607h10.75a2.607,2.607,0,0,0,2.607-2.607Zm74.009,0a2.607,2.607,0,0,0-2.607-2.607h-10.75a2.607,2.607,0,0,0-2.607,2.607v10.75a2.607,2.607,0,0,0,2.607,2.607h10.75a2.607,2.607,0,0,0,2.607-2.607Zm74.009,0a2.607,2.607,0,0,0-2.607-2.607h-10.75a2.607,2.607,0,0,0-2.607,2.607v10.75a2.607,2.607,0,0,0,2.607,2.607h10.75a2.607,2.607,0,0,0,2.607-2.607ZM82.968,32.532A2.532,2.532,0,0,0,80.436,30H45.987A15.986,15.986,0,0,0,30,45.987V80.436a2.532,2.532,0,0,0,2.532,2.532h10.9a2.533,2.533,0,0,0,2.532-2.532V45.963H80.436a2.533,2.533,0,0,0,2.532-2.532Zm74.009,37.079A2.607,2.607,0,0,0,154.371,67H143.62a2.607,2.607,0,0,0-2.606,2.606v10.75a2.607,2.607,0,0,0,2.606,2.607h10.75a2.607,2.607,0,0,0,2.607-2.607Zm-74.009,0A2.607,2.607,0,0,0,80.361,67H69.611A2.607,2.607,0,0,0,67,69.611v10.75a2.607,2.607,0,0,0,2.606,2.607h10.75a2.607,2.607,0,0,0,2.607-2.607Zm148.018,0A2.607,2.607,0,0,0,228.38,67h-10.75a2.607,2.607,0,0,0-2.607,2.606v10.75a2.607,2.607,0,0,0,2.607,2.607h10.75a2.607,2.607,0,0,0,2.606-2.607Zm74.009,0A2.607,2.607,0,0,0,302.389,67h-10.75a2.607,2.607,0,0,0-2.606,2.606v10.75a2.607,2.607,0,0,0,2.606,2.607h10.75A2.607,2.607,0,0,0,305,80.361Z" fill="#0d0d0d" fill-rule="evenodd"/>
  </g>
</svg>
