<?xml version="1.0" encoding="UTF-8" standalone="no"?>
<!DOCTYPE svg PUBLIC "-//W3C//DTD SVG 1.1//EN" "http://www.w3.org/Graphics/SVG/1.1/DTD/svg11.dtd">
<svg width="100%" height="100%" viewBox="0 0 500 493" version="1.1" xmlns="http://www.w3.org/2000/svg" xmlns:xlink="http://www.w3.org/1999/xlink" xml:space="preserve" xmlns:serif="http://www.serif.com/" style="fill-rule:evenodd;clip-rule:evenodd;stroke-linejoin:round;stroke-miterlimit:2;">
    <g transform="matrix(1,0,0,1,-149.119,-133.811)">
        <path d="M515.144,489.705L598.93,560.01C605.265,565.326 614.71,564.499 620.026,558.164C625.867,551.202 633.748,541.81 639.59,534.848C644.906,528.513 644.08,519.068 637.745,513.753L547.949,438.405L547.968,438.362C548.454,437.227 548.922,436.085 549.368,434.934C550.237,432.695 551.028,430.425 551.74,428.131C553.557,422.271 554.856,416.251 555.62,410.163C556.444,403.599 556.646,396.958 556.227,390.356C555.808,383.76 554.768,377.203 553.124,370.801C551.642,365.028 549.668,359.382 547.227,353.945C544.867,348.686 542.071,343.624 538.874,338.828C535.245,333.383 531.1,328.283 526.516,323.613C524.008,321.058 521.369,318.631 518.615,316.342C517.491,315.409 516.348,314.499 515.188,313.611L515.144,313.578L515.144,231.092C515.144,230.628 515.017,230.193 514.797,229.821C514.678,229.62 514.531,229.435 514.359,229.272L426.499,146.491C426.364,146.363 426.215,146.252 426.057,146.159L426.049,146.154C425.69,145.943 425.274,145.819 424.83,145.811L175.394,145.811C164.218,145.811 155.144,154.884 155.144,166.061L155.144,606.561C155.144,617.737 164.218,626.811 175.394,626.811L494.894,626.811C506.07,626.811 515.144,617.737 515.144,606.561L515.144,489.705ZM422.285,150.811L175.394,150.811C166.977,150.811 160.144,157.644 160.144,166.061L160.144,606.561C160.144,614.977 166.977,621.811 175.394,621.811L494.894,621.811C503.311,621.811 510.144,614.977 510.144,606.561L510.144,485.51L509.135,484.663L531.928,464.375C494.733,508.702 428.548,514.492 384.221,477.298C339.894,440.103 334.104,373.918 371.298,329.591C406.086,288.132 466.235,280.384 510.144,309.99L510.144,233.592L442.535,233.592C431.358,233.592 422.285,224.518 422.285,213.342L422.285,150.811ZM195.598,564.826L466.798,564.826C468.178,564.826 469.298,563.706 469.298,562.326C469.298,560.947 468.178,559.826 466.798,559.826L195.598,559.826C194.218,559.826 193.098,560.947 193.098,562.326C193.098,563.706 194.218,564.826 195.598,564.826ZM545.736,443.212C545.185,444.331 544.615,445.441 544.025,446.54C542.834,448.756 541.563,450.929 540.216,453.053C537.769,456.911 535.07,460.607 532.145,464.115C529.818,466.907 527.348,469.58 524.745,472.118C522.427,474.379 520.004,476.533 517.485,478.57C516.176,479.628 514.841,480.654 513.484,481.648L513.397,481.712L602.144,556.18C606.364,559.721 612.655,559.17 616.195,554.951C622.037,547.988 629.918,538.596 635.76,531.634C639.301,527.414 638.75,521.124 634.531,517.583L545.783,443.115L545.736,443.212ZM515.791,320.498C558.004,355.919 563.519,418.948 528.098,461.161C492.677,503.374 429.648,508.888 387.435,473.468C345.222,438.047 339.708,375.018 375.128,332.805C410.549,290.592 473.578,285.077 515.791,320.498ZM195.598,494.42L371.1,494.42C372.48,494.42 373.6,493.3 373.6,491.92C373.6,490.54 372.48,489.42 371.1,489.42L195.598,489.42C194.218,489.42 193.098,490.54 193.098,491.92C193.098,493.3 194.218,494.42 195.598,494.42ZM195.598,424.014L334.728,424.014C336.108,424.014 337.228,422.894 337.228,421.514C337.228,420.134 336.108,419.014 334.728,419.014L195.598,419.014C194.218,419.014 193.098,420.134 193.098,421.514C193.098,422.894 194.218,424.014 195.598,424.014ZM381.481,396.983C381.481,358.276 412.906,326.851 451.613,326.851C452.993,326.851 454.113,325.731 454.113,324.351C454.113,322.971 452.993,321.851 451.613,321.851C410.147,321.851 376.481,355.516 376.481,396.983C376.481,398.363 377.601,399.483 378.981,399.483C380.361,399.483 381.481,398.363 381.481,396.983ZM195.598,353.608L334.728,353.608C336.108,353.608 337.228,352.487 337.228,351.108C337.228,349.728 336.108,348.608 334.728,348.608L195.598,348.608C194.218,348.608 193.098,349.728 193.098,351.108C193.098,352.487 194.218,353.608 195.598,353.608ZM195.598,283.201L371.1,283.201C372.48,283.201 373.6,282.081 373.6,280.701C373.6,279.322 372.48,278.201 371.1,278.201L195.598,278.201C194.218,278.201 193.098,279.322 193.098,280.701C193.098,282.081 194.218,283.201 195.598,283.201ZM427.285,154.101L427.285,213.342C427.285,221.758 434.118,228.592 442.535,228.592L506.345,228.592L427.285,154.101ZM195.598,212.795L346.322,212.795C347.701,212.795 348.822,211.675 348.822,210.295C348.822,208.915 347.701,207.795 346.322,207.795L195.598,207.795C194.218,207.795 193.098,208.915 193.098,210.295C193.098,211.675 194.218,212.795 195.598,212.795Z" style="fill:rgb(69,69,69);"/>
    </g>
</svg>
