<?xml version="1.0" encoding="UTF-8" standalone="no"?>
<!DOCTYPE svg PUBLIC "-//W3C//DTD SVG 1.1//EN" "http://www.w3.org/Graphics/SVG/1.1/DTD/svg11.dtd">
<svg width="100%" height="100%" viewBox="0 0 500 493" version="1.1" xmlns="http://www.w3.org/2000/svg" xmlns:xlink="http://www.w3.org/1999/xlink" xml:space="preserve" xmlns:serif="http://www.serif.com/" style="fill-rule:evenodd;clip-rule:evenodd;stroke-linejoin:round;stroke-miterlimit:2;">
    <g transform="matrix(1,0,0,1,-150,-134.499)">
        <path d="M337.66,572.554L337.511,570.759C319.056,581.773 306.693,601.942 306.693,624.999C306.693,627.356 309.193,627.499 309.193,627.499L488.629,627.499L488.736,627.488C489.215,627.429 491.129,627.061 491.129,624.999C491.129,602.378 479.229,582.537 461.346,571.391C465.758,518.698 486.49,477.067 522.863,446.026C523.844,445.188 524.027,443.741 523.285,442.686L401.501,269.481C401.032,268.815 400.269,268.419 399.455,268.419C398.642,268.419 397.879,268.815 397.41,269.481L275.626,442.686C274.884,443.741 275.067,445.188 276.048,446.026C312.689,477.295 333.457,519.311 337.66,572.554ZM310.884,626.84C310.662,627.044 310.402,627.209 310.117,627.323C309.831,627.436 309.519,627.499 309.193,627.499C309.193,627.499 310.154,627.444 310.884,626.84ZM340.432,574.842C323.911,584.541 312.607,602.169 311.747,622.499L486.075,622.499C484.766,591.56 459.27,566.879 428.009,566.879L369.813,566.879C359.791,566.879 350.361,569.416 342.133,573.881C341.733,574.401 341.13,574.763 340.432,574.842ZM396.955,278.821L281.017,443.711C316.678,474.878 337.352,516.201 342.297,568.176C350.611,564.142 359.948,561.879 369.813,561.879L428.009,561.879C438.285,561.879 447.989,564.335 456.565,568.693L456.267,572.161C460.517,518.31 481.327,475.67 517.893,443.711L401.955,278.821L401.955,411.053C418.932,412.333 432.325,426.529 432.325,443.828C432.325,461.969 417.596,476.698 399.455,476.698C381.314,476.698 366.586,461.969 366.586,443.828C366.586,426.529 379.979,412.333 396.955,411.053L396.955,278.821ZM399.455,415.959C414.837,415.959 427.325,428.447 427.325,443.828C427.325,459.21 414.837,471.698 399.455,471.698C384.074,471.698 371.586,459.21 371.586,443.828C371.586,428.447 384.074,415.959 399.455,415.959ZM578.459,170.205L432.775,170.205C431.495,153.229 417.299,139.836 400,139.836C382.701,139.836 368.505,153.229 367.225,170.205L221.541,170.205L221.541,142.336C221.541,140.955 220.422,139.836 219.041,139.836L158.302,139.836C156.922,139.836 155.802,140.955 155.802,142.336L155.802,203.074C155.802,204.455 156.922,205.574 158.302,205.574L219.041,205.574C220.422,205.574 221.541,204.455 221.541,203.074L221.541,175.205L355.03,175.205L354.932,175.227C352.021,175.888 349.124,176.612 346.244,177.401C340.977,178.843 335.769,180.5 330.637,182.365C320.092,186.197 309.869,190.91 300.104,196.435C291.004,201.584 282.302,207.436 274.099,213.919C265.857,220.432 258.119,227.58 250.974,235.279C243.906,242.894 237.418,251.049 231.589,259.65C225.844,268.126 220.739,277.036 216.336,286.281C211.683,296.05 207.817,306.192 204.788,316.579C203.295,321.699 202.006,326.877 200.924,332.099C200.339,334.922 199.815,337.758 199.35,340.603L199.344,340.641L199.195,340.641C181.054,340.641 166.326,355.369 166.326,373.51C166.326,391.651 181.054,406.379 199.195,406.379C217.336,406.379 232.064,391.651 232.064,373.51C232.064,357.122 220.044,343.518 204.345,341.043L204.346,341.033C204.975,337.229 205.713,333.444 206.563,329.683C207.998,323.333 209.748,317.054 211.805,310.878C215.861,298.7 221.112,286.923 227.453,275.763C231.852,268.019 236.774,260.573 242.171,253.489C247.599,246.365 253.507,239.608 259.842,233.276C266.234,226.888 273.059,220.934 280.257,215.469C287.351,210.084 294.807,205.175 302.558,200.79C313.695,194.488 325.443,189.271 337.589,185.241C343.729,183.204 349.97,181.471 356.281,180.049C360.001,179.21 363.746,178.481 367.509,177.859L367.533,177.855C370.008,193.554 383.611,205.574 400,205.574C416.389,205.574 429.992,193.554 432.467,177.855L432.491,177.859C436.213,178.474 439.917,179.194 443.597,180.021C449.91,181.439 456.152,183.169 462.294,185.203C474.404,189.211 486.12,194.402 497.23,200.67C504.987,205.046 512.449,209.946 519.549,215.323C526.754,220.779 533.587,226.725 539.987,233.105C546.386,239.486 552.352,246.301 557.829,253.489C563.226,260.573 568.148,268.019 572.547,275.763C578.867,286.887 584.105,298.624 588.156,310.76C590.217,316.935 591.971,323.212 593.41,329.56C594.252,333.28 594.986,337.023 595.613,340.784L595.631,340.893C579.413,342.908 566.847,356.753 566.847,373.51C566.847,391.651 581.575,406.379 599.716,406.379C617.857,406.379 632.585,391.651 632.585,373.51C632.585,355.685 618.365,341.155 600.658,340.654L600.65,340.603C600.185,337.758 599.661,334.922 599.076,332.099C597.994,326.877 596.705,321.699 595.212,316.579C592.183,306.192 588.317,296.05 583.664,286.281C579.261,277.036 574.156,268.126 568.411,259.65C562.582,251.049 556.094,242.894 549.026,235.279C541.881,227.58 534.143,220.432 525.901,213.919C517.698,207.436 508.996,201.584 499.896,196.435C490.131,190.91 479.908,186.197 469.363,182.365C464.231,180.5 459.023,178.843 453.756,177.401C450.876,176.612 447.979,175.888 445.068,175.227L444.97,175.205L578.459,175.205L578.459,203.074C578.459,204.455 579.578,205.574 580.959,205.574L641.698,205.574C643.078,205.574 644.198,204.455 644.198,203.074L644.198,142.336C644.198,140.955 643.078,139.836 641.698,139.836L580.959,139.836C579.578,139.836 578.459,140.955 578.459,142.336L578.459,170.205ZM599.716,345.641C615.097,345.641 627.585,358.129 627.585,373.51C627.585,388.892 615.097,401.379 599.716,401.379C584.335,401.379 571.847,388.892 571.847,373.51C571.847,358.129 584.335,345.641 599.716,345.641ZM199.195,345.641C214.576,345.641 227.064,358.129 227.064,373.51C227.064,388.892 214.576,401.379 199.195,401.379C183.814,401.379 171.326,388.892 171.326,373.51C171.326,358.129 183.814,345.641 199.195,345.641ZM583.459,200.574L583.459,144.836L639.197,144.836C639.198,144.836 639.198,200.574 639.198,200.574L583.459,200.574ZM400,144.836C415.381,144.836 427.869,157.324 427.869,172.705C427.869,188.087 415.381,200.574 400,200.574C384.619,200.574 372.131,188.087 372.131,172.705C372.131,157.324 384.619,144.836 400,144.836ZM216.541,144.836L216.541,200.574L160.803,200.574C160.802,200.574 160.802,144.836 160.802,144.836L216.541,144.836Z" style="fill:rgb(69,69,69);"/>
    </g>
</svg>
