<?xml version="1.0" encoding="UTF-8" standalone="no"?>
<!DOCTYPE svg PUBLIC "-//W3C//DTD SVG 1.1//EN" "http://www.w3.org/Graphics/SVG/1.1/DTD/svg11.dtd">
<svg width="100%" height="100%" viewBox="0 0 500 493" version="1.1" xmlns="http://www.w3.org/2000/svg" xmlns:xlink="http://www.w3.org/1999/xlink" xml:space="preserve" xmlns:serif="http://www.serif.com/" style="fill-rule:evenodd;clip-rule:evenodd;stroke-linejoin:round;stroke-miterlimit:2;">
    <g transform="matrix(1,0,0,1,-117.204,-186.55)">
        <path d="M240.972,555.762L121.452,675.282C120.476,676.258 120.476,677.842 121.452,678.818C122.427,679.794 124.011,679.794 124.987,678.818L244.508,559.297C245.483,558.322 245.483,556.737 244.508,555.762C243.532,554.786 241.948,554.786 240.972,555.762ZM269.256,584.046L185.609,667.693C184.634,668.669 184.634,670.253 185.609,671.229C186.585,672.204 188.169,672.204 189.145,671.229L272.792,587.582C273.768,586.606 273.768,585.022 272.792,584.046C271.816,583.07 270.232,583.07 269.256,584.046ZM212.688,527.477L129.041,611.125C128.065,612.1 128.065,613.684 129.041,614.66C130.016,615.636 131.601,615.636 132.576,614.66L216.223,531.013C217.199,530.037 217.199,528.453 216.223,527.477C215.248,526.502 213.664,526.502 212.688,527.477ZM340.978,299.574C219.245,322.271 185.374,429.464 185.374,429.464C185.149,430.174 185.253,430.947 185.657,431.574C186.061,432.2 186.723,432.613 187.463,432.701L270.504,442.558C263.293,462.125 257.043,480.056 251.176,495.054C250.814,495.979 251.034,497.03 251.736,497.732L302.537,548.533C303.239,549.236 304.291,549.456 305.216,549.094C320.214,543.226 338.145,536.976 357.712,529.765L367.569,612.807C367.657,613.546 368.07,614.209 368.696,614.613C369.322,615.016 370.096,615.12 370.806,614.895C370.806,614.895 477.999,581.024 500.695,459.292C573.037,407.581 628.841,327.24 609.993,192.406C609.839,191.3 608.969,190.431 607.863,190.276C473.029,171.428 392.688,227.233 340.978,299.574ZM494.776,463.434C485.587,469.734 476.154,475.598 466.6,481.072C431.627,501.11 395.028,515.899 362.535,527.98L372.165,609.111C388.82,602.864 473.098,566.499 494.776,463.434ZM463.976,207.483L592.787,336.293C568.213,402.171 518.125,445.787 464.114,476.734C407.03,509.441 345.58,528.072 304.919,543.844L256.426,495.351C272.198,454.689 290.828,393.24 323.536,336.155C354.482,282.144 398.098,232.056 463.976,207.483ZM336.835,305.493C233.77,327.172 197.405,411.45 191.158,428.104L272.29,437.734C284.37,405.241 299.159,368.642 319.197,333.669C324.671,324.116 330.535,314.683 336.835,305.493ZM484.347,315.922C466.669,298.244 437.964,298.244 420.286,315.922C402.607,333.601 402.607,362.306 420.286,379.984C437.964,397.662 466.669,397.662 484.347,379.984C502.025,362.306 502.025,333.601 484.347,315.922ZM480.811,319.458C496.538,335.185 496.538,360.721 480.811,376.448C465.085,392.175 439.548,392.175 423.821,376.448C408.094,360.721 408.094,335.185 423.821,319.458C439.548,303.731 465.085,303.731 480.811,319.458ZM594.658,331.093L469.177,205.612C506.872,192.551 551.675,187.727 605.299,194.971C612.542,248.594 607.719,293.397 594.658,331.093Z" style="fill:rgb(185,185,185);"/>
    </g>
</svg>
