<?xml version="1.0" encoding="UTF-8" standalone="no"?>
<!DOCTYPE svg PUBLIC "-//W3C//DTD SVG 1.1//EN" "http://www.w3.org/Graphics/SVG/1.1/DTD/svg11.dtd">
<svg width="100%" height="100%" viewBox="0 0 800 600" version="1.1" xmlns="http://www.w3.org/2000/svg" xmlns:xlink="http://www.w3.org/1999/xlink" xml:space="preserve" xmlns:serif="http://www.serif.com/" style="fill-rule:evenodd;clip-rule:evenodd;stroke-linejoin:round;stroke-miterlimit:2;">
    <g id="Mobile" transform="matrix(1,0,0,1,-198.769,0)">
        <path d="M510.228,-0L225.269,0C218.241,0 211.5,2.792 206.531,7.762C201.561,12.731 198.769,19.472 198.769,26.5L198.769,573.5C198.769,580.528 201.561,587.269 206.531,592.238C211.5,597.208 218.241,600 225.269,600L510.228,600C510.576,600 510.923,599.993 511.268,599.98L773.536,599.98C780.564,599.98 787.304,597.188 792.274,592.218C797.244,587.248 800.036,580.508 800.036,573.48L800.036,288.52C800.036,273.885 788.171,262.02 773.536,262.02L536.728,262.02L536.728,162.279C539.475,162.264 541.7,160.029 541.7,157.279L541.7,102.721C541.7,99.971 539.475,97.736 536.728,97.721L536.728,26.5C536.728,19.472 533.936,12.731 528.966,7.762C523.997,2.792 517.256,0 510.228,-0ZM431.423,5L431.423,33C431.423,41.008 424.931,47.5 416.923,47.5L318.574,47.5C310.566,47.5 304.074,41.008 304.074,33L304.074,5L225.269,5C219.567,5 214.098,7.265 210.066,11.297C206.034,15.329 203.769,20.798 203.769,26.5L203.769,573.5C203.769,579.202 206.034,584.671 210.066,588.703C214.098,592.735 219.567,595 225.269,595L374.428,595C374.533,594.987 374.64,594.98 374.748,594.98L511.166,594.98C516.526,594.746 521.62,592.513 525.431,588.703C529.463,584.671 531.728,579.202 531.728,573.5L531.728,157.811C531.709,157.636 531.7,157.459 531.7,157.279L531.7,102.721C531.7,102.541 531.709,102.364 531.728,102.189L531.728,26.5C531.728,20.798 529.463,15.329 525.431,11.297C521.399,7.265 515.93,5 510.228,5L431.423,5ZM536.728,267.02L536.728,573.5C536.728,580.528 533.936,587.269 528.966,592.238C527.962,593.243 526.885,594.158 525.748,594.98L773.536,594.98C779.238,594.98 784.707,592.714 788.739,588.682C792.771,584.65 795.036,579.182 795.036,573.48L795.036,288.52C795.036,276.646 785.41,267.02 773.536,267.02L536.728,267.02ZM426.423,5L309.074,5L309.074,33C309.074,38.247 313.327,42.5 318.574,42.5L416.923,42.5C422.17,42.5 426.423,38.247 426.423,33L426.423,5Z" style="fill:rgb(185,185,185);"/>
        <g transform="matrix(1,0,0,1,338.748,-5)">
            <circle cx="29" cy="28.75" r="7" style="fill:rgb(245,28,97);"/>
        </g>
    </g>
</svg>
