<?xml version="1.0" encoding="UTF-8" standalone="no"?>
<!DOCTYPE svg PUBLIC "-//W3C//DTD SVG 1.1//EN" "http://www.w3.org/Graphics/SVG/1.1/DTD/svg11.dtd">
<svg width="100%" height="100%" viewBox="0 0 800 600" version="1.1" xmlns="http://www.w3.org/2000/svg" xmlns:xlink="http://www.w3.org/1999/xlink" xml:space="preserve" xmlns:serif="http://www.serif.com/" style="fill-rule:evenodd;clip-rule:evenodd;stroke-linejoin:round;stroke-miterlimit:2;">
    <g id="Web">
        <path d="M800,26.5C800,19.472 797.208,12.731 792.238,7.762C787.269,2.792 780.528,-0 773.5,0L26.5,0C19.472,-0 12.731,2.792 7.762,7.762C2.792,12.731 -0,19.472 -0,26.5L0,573.5C-0,580.528 2.792,587.269 7.762,592.238C12.731,597.208 19.472,600 26.5,600L773.5,600C780.528,600 787.269,597.208 792.238,592.238C797.208,587.269 800,580.528 800,573.5L800,26.5ZM795,57.5L795,573.5C795,579.202 792.735,584.671 788.703,588.703C784.671,592.735 779.202,595 773.5,595L26.5,595C20.798,595 15.329,592.735 11.297,588.703C7.265,584.671 5,579.202 5,573.5L5,57.5L795,57.5ZM795,52.5L5,52.5L5,26.5C5,20.798 7.265,15.329 11.297,11.297C15.329,7.265 20.798,5 26.5,5L773.5,5C779.202,5 784.671,7.265 788.703,11.297C792.735,15.329 795,20.798 795,26.5L795,52.5Z" style="fill:rgb(69,69,69);"/>
        <path d="M29,21.75C32.863,21.75 36,24.887 36,28.75C36,32.613 32.863,35.75 29,35.75C25.137,35.75 22,32.613 22,28.75C22,24.887 25.137,21.75 29,21.75ZM51,21.75C54.863,21.75 58,24.887 58,28.75C58,32.613 54.863,35.75 51,35.75C47.137,35.75 44,32.613 44,28.75C44,24.887 47.137,21.75 51,21.75ZM73,21.75C76.863,21.75 80,24.887 80,28.75C80,32.613 76.863,35.75 73,35.75C69.137,35.75 66,32.613 66,28.75C66,24.887 69.137,21.75 73,21.75Z" style="fill:rgb(245,28,97);"/>
    </g>
</svg>
